<!DOCTYPE svg PUBLIC "-//W3C//DTD SVG 1.1//EN" "http://www.w3.org/Graphics/SVG/1.1/DTD/svg11.dtd">
<!-- Uploaded to: SVG Repo, www.svgrepo.com, Transformed by: SVG Repo Mixer Tools -->
<svg fill="#000000" width="800px" height="800px" viewBox="-3.2 -3.2 38.40 38.40" xmlns="http://www.w3.org/2000/svg">
<g id="SVGRepo_bgCarrier" stroke-width="0">
<path transform="translate(-3.2, -3.2), scale(2.4)" fill="#d93a3a" d="M9.166.33a2.25 2.25 0 00-2.332 0l-5.25 3.182A2.25 2.25 0 00.5 5.436v5.128a2.25 2.25 0 001.084 1.924l5.25 3.182a2.25 2.25 0 002.332 0l5.25-3.182a2.25 2.25 0 001.084-1.924V5.436a2.25 2.25 0 00-1.084-1.924L9.166.33z" strokewidth="0"/>
</g>
<g id="SVGRepo_tracerCarrier" stroke-linecap="round" stroke-linejoin="round"/>
<g id="SVGRepo_iconCarrier"> <path d="M32 6v20c0 1.135-0.865 2-2 2h-2v-18.151l-12 8.62-12-8.62v18.151h-2c-1.135 0-2-0.865-2-2v-20c0-0.568 0.214-1.068 0.573-1.422 0.359-0.365 0.859-0.578 1.427-0.578h0.667l13.333 9.667 13.333-9.667h0.667c0.568 0 1.068 0.214 1.427 0.578 0.359 0.354 0.573 0.854 0.573 1.422z"/> </g>
</svg>